<?xml version="1.0" encoding="UTF-8" standalone="no"?>
<svg width="410px" height="409px" viewBox="0 0 410 409" version="1.1" xmlns="http://www.w3.org/2000/svg" xmlns:xlink="http://www.w3.org/1999/xlink" xmlns:sketch="http://www.bohemiancoding.com/sketch/ns">
    <!-- Generator: Sketch 3.1 (8751) - http://www.bohemiancoding.com/sketch -->
    <title>Vector 1</title>
    <desc>Created with Sketch.</desc>
    <defs></defs>
    <g id="Page-1" stroke="none" stroke-width="1" fill="none" fill-rule="evenodd" sketch:type="MSPage">
        <rect id="Rectangle-1" stroke="#BBBBBB" fill="#FFFFFF" sketch:type="MSShapeGroup" x="6" y="6" width="400" height="400" rx="5"></rect>
        <rect id="Rectangle-2" stroke="#BBBBBB" fill="#EEEEEE" sketch:type="MSShapeGroup" x="6" y="6" width="400" height="64"></rect>
        <text id="User" sketch:type="MSTextLayer" font-family="Open Sans" font-size="24" font-weight="526" sketch:alignment="middle" fill="#555555">
            <tspan x="179.664062" y="44">User</tspan>
        </text>
        <text id="--name-:-string" sketch:type="MSTextLayer" font-family="Menlo" font-size="16" font-weight="normal">
            <tspan x="18" y="98" fill="#555555">- </tspan>
            <tspan x="37.265625" y="98" fill="#4990E2">name</tspan>
            <tspan x="75.796875" y="98" fill="#555555"> : </tspan>
            <tspan x="104.695312" y="98" fill="#F9B42D">string</tspan>
            <tspan x="162.492188" y="98" fill="#555555"></tspan>
            <tspan x="18" y="117" fill="#555555">- </tspan>
            <tspan x="37.265625" y="117" fill="#4990E2">password</tspan>
            <tspan x="114.328125" y="117" fill="#555555"> : </tspan>
            <tspan x="143.226562" y="117" fill="#F9B42D">string</tspan>
            <tspan x="201.023438" y="117" fill="#555555"></tspan>
            <tspan x="18" y="136" fill="#555555">- </tspan>
            <tspan x="37.265625" y="136" fill="#59A3E8">id</tspan>
            <tspan x="56.53125" y="136" fill="#555555"> : </tspan>
            <tspan x="85.4296875" y="136" fill="#F9B42D">string</tspan>
            <tspan x="143.226562" y="136" fill="#555555"></tspan>
            <tspan x="18" y="155" fill="#555555">- </tspan>
            <tspan x="37.265625" y="155" fill="#59A3E8">email</tspan>
            <tspan x="85.4296875" y="155" fill="#555555"> : </tspan>
            <tspan x="114.328125" y="155" fill="#F6A623">string</tspan>
            <tspan x="172.125" y="155" fill="#555555"></tspan>
            <tspan x="18" y="174" fill="#555555"></tspan>
            <tspan x="18" y="193" fill="#555555">+ </tspan>
            <tspan x="37.265625" y="193" fill="#4990E2">setName</tspan>
            <tspan x="104.695312" y="193" fill="#555555">(</tspan>
            <tspan x="114.328125" y="193" font-style="italic" fill="#F9B42D">name</tspan>
            <tspan x="152.859375" y="193" fill="#555555">)</tspan>
            <tspan x="18" y="212" fill="#555555">+ </tspan>
            <tspan x="37.265625" y="212" fill="#59A3E8">getName</tspan>
            <tspan x="104.695312" y="212" fill="#555555">()</tspan>
            <tspan x="18" y="231" fill="#555555">+ </tspan>
            <tspan x="37.265625" y="231" fill="#59A3E8">setPassword</tspan>
            <tspan x="143.226562" y="231" fill="#555555">(</tspan>
            <tspan x="152.859375" y="231" font-style="italic" fill="#F9B42D">password</tspan>
            <tspan x="229.921875" y="231" fill="#555555">)</tspan>
            <tspan x="18" y="250" fill="#555555">+ </tspan>
            <tspan x="37.265625" y="250" fill="#4990E2">getPassword</tspan>
            <tspan x="143.226562" y="250" fill="#555555">()</tspan>
            <tspan x="18" y="269" fill="#555555">+ </tspan>
            <tspan x="37.265625" y="269" fill="#4990E2">setEmail</tspan>
            <tspan x="114.328125" y="269" fill="#555555">(</tspan>
            <tspan x="123.960938" y="269" font-style="italic" fill="#F9B42D">email</tspan>
            <tspan x="172.125" y="269" fill="#555555">)</tspan>
            <tspan x="18" y="288" fill="#555555">+ </tspan>
            <tspan x="37.265625" y="288" fill="#59A3E8">getEmail</tspan>
            <tspan x="114.328125" y="288" fill="#555555">()</tspan>
            <tspan x="18" y="307" fill="#555555">+ </tspan>
            <tspan x="37.265625" y="307" fill="#59A3E8">autheticate</tspan>
            <tspan x="143.226562" y="307" fill="#555555">(</tspan>
            <tspan x="152.859375" y="307" font-style="italic" fill="#F6A623">name</tspan>
            <tspan x="191.390625" y="307" font-style="italic" fill="#FCC039">,</tspan>
            <tspan x="201.023438" y="307" font-style="italic" fill="#FDCA49"> </tspan>
            <tspan x="210.65625" y="307" font-style="italic" fill="#F9B42D">password</tspan>
            <tspan x="287.71875" y="307" fill="#555555">)</tspan>
            <tspan x="18" y="326" fill="#555555">+ </tspan>
            <tspan x="37.265625" y="326" fill="#4990E2">reauthenticate</tspan>
            <tspan x="172.125" y="326" fill="#555555">(</tspan>
            <tspan x="181.757812" y="326" font-style="italic" fill="#F6A623">password</tspan>
            <tspan x="258.820312" y="326" fill="#555555">)</tspan>
            <tspan x="18" y="345" fill="#555555">+ </tspan>
            <tspan x="37.265625" y="345" fill="#59A3E8">setSession</tspan>
            <tspan x="133.59375" y="345" fill="#555555">()</tspan>
            <tspan x="18" y="364" fill="#555555">+ </tspan>
            <tspan x="37.265625" y="364" fill="#59A3E8">sessionExpire</tspan>
            <tspan x="162.492188" y="364" fill="#555555">()</tspan>
            <tspan x="18" y="383" fill="#555555">+ </tspan>
            <tspan x="37.265625" y="383" fill="#59A3E8">resetPassword</tspan>
            <tspan x="162.492188" y="383" fill="#555555">(</tspan>
            <tspan x="172.125" y="383" font-style="italic" fill="#F6A623">newPassword, email</tspan>
            <tspan x="345.515625" y="383" fill="#555555">)</tspan>
        </text>
    </g>
</svg>