<?xml version="1.0" encoding="UTF-8" standalone="no"?>
<svg width="640px" height="1136px" viewBox="0 0 640 1136" version="1.1" xmlns="http://www.w3.org/2000/svg" xmlns:xlink="http://www.w3.org/1999/xlink" xmlns:sketch="http://www.bohemiancoding.com/sketch/ns">
    <!-- Generator: Sketch 3.1 (8751) - http://www.bohemiancoding.com/sketch -->
    <title>Residence UI Design | Menu</title>
    <desc>Created with Sketch.</desc>
    <defs></defs>
    <g id="Welcome" stroke="none" stroke-width="1" fill="none" fill-rule="evenodd" sketch:type="MSPage">
        <g id="Residence-UI-Design-|-Menu" sketch:type="MSArtboardGroup">
            <g id="Menubar-Background" sketch:type="MSLayerGroup">
                <rect id="Background" fill-opacity="0.65" fill="#333333" sketch:type="MSShapeGroup" x="0" y="0" width="640" height="128"></rect>
                <rect id="Line" opacity="0.4" fill="#000000" sketch:type="MSShapeGroup" x="0" y="128" width="640" height="1"></rect>
            </g>
            <text id="Menu" fill="#FFFFFF" sketch:type="MSTextLayer" font-family="Open Sans" font-size="34" font-weight="normal" sketch:alignment="middle">
                <tspan x="274.746094" y="99">Menu</tspan>
            </text>
            <g id="Status-Bar-/-Black" sketch:type="MSLayerGroup">
                <rect id="Background" fill-opacity="0" fill="#FFFFFF" sketch:type="MSShapeGroup" x="0" y="0" width="640" height="41"></rect>
                <g id="Charge" transform="translate(524.000000, 6.000000)">
                    <g id="Battery-Icon" transform="translate(56.000000, 5.000000)" sketch:type="MSShapeGroup">
                        <rect id="Battery" stroke="#FFFFFF" x="0" y="0" width="45" height="19" rx="3"></rect>
                        <rect id="Charge" stroke="#FFFFFF" fill="#7ED321" x="2" y="2" width="17" height="15" rx="2"></rect>
                        <path d="M49,9.46455558 C49,11.2277927 47.6961455,12.6864982 46,12.9291112 L46,6 C47.6961455,6.24261297 49,7.70131842 49,9.46455558 Z" id="+" fill="#FFFFFF"></path>
                    </g>
                    <text id="42%" fill="#FFFFFF" sketch:type="MSTextLayer" font-family="Helvetica Neue" font-size="24" font-weight="normal">
                        <tspan x="0" y="23">42%</tspan>
                    </text>
                </g>
                <path d="M502.855529,28.7378929 L502.855529,21.6214643 L506.279529,25.3503571 L502.855529,28.7378929 L502.855529,28.7378929 L502.855529,28.7378929 L502.855529,28.7378929 Z M506.436706,14.6930714 L502.855529,18.2956429 L502.855529,11.4704286 L506.436706,14.6930714 L506.436706,14.6930714 L506.436706,14.6930714 L506.436706,14.6930714 Z M503.715765,20.0217143 L509.029647,14.6930714 L501.101176,7 L500.913882,7 L500.913882,17.6997143 L495.532235,12.0576786 L494,13.6583929 L500.475294,20.0217143 L494,26.3840714 L495.532235,27.9847857 L500.913882,22.34275 L500.913882,33.0415 L501.256471,33.0415 L509.106824,25.3291429 L503.715765,20.0217143 L503.715765,20.0217143 Z" id="Bluetooth-Icon" opacity="0.45" fill="#FFFFFF" sketch:type="MSShapeGroup"></path>
                <path d="M175.991503,14.0417534 C179.871048,14.0417534 183.406722,15.4709041 186.117706,17.8143562 L188,15.7362192 C184.789204,12.9489315 180.595777,11 175.991503,11 C171.394227,11 167.206797,12.9430137 164,15.7214247 L165.878296,17.8025205 C168.58728,15.4659726 172.116956,14.0417534 175.991503,14.0417534 L175.991503,14.0417534 Z M175.991503,20.0404384 C178.316631,20.0404384 180.440835,20.8847123 182.07922,22.2753973 L184.070474,20.0759452 C181.903286,18.2157808 179.084343,17.0006575 175.991503,17.0006575 C172.904661,17.0006575 170.087717,18.2128219 167.922529,20.0670685 L169.910783,22.2694795 C171.548169,20.8817534 173.669374,20.0404384 175.991503,20.0404384 L175.991503,20.0404384 Z M180.086967,24.4748493 C178.978383,23.5546301 177.550918,22.9174795 175.990504,22.9174795 C174.433088,22.9174795 173.007622,23.5536438 171.899038,24.4699178 L175.990504,29 L180.086967,24.4748493 L180.086967,24.4748493 Z" id="Wifi" fill="#FFFFFF" sketch:type="MSShapeGroup"></path>
                <g id="Signal" transform="translate(13.000000, 15.000000)" sketch:type="MSShapeGroup">
                    <circle id="Oval-1" fill="#FFFFFF" cx="5.5" cy="5.5" r="5.5"></circle>
                    <circle id="Oval-1-copy" fill="#FFFFFF" cx="19.5" cy="5.5" r="5.5"></circle>
                    <circle id="Oval-1-copy-2" fill="#FFFFFF" cx="33.5" cy="5.5" r="5.5"></circle>
                    <circle id="Oval-1-copy-3" stroke="#FFFFFF" cx="47.5" cy="5.5" r="5.5"></circle>
                    <circle id="Oval-1-copy-4" stroke="#FFFFFF" cx="61.5" cy="5.5" r="5.5"></circle>
                </g>
                <text id="Sketch" fill="#FFFFFF" sketch:type="MSTextLayer" font-family="Helvetica Neue" font-size="23" font-weight="normal">
                    <tspan x="87" y="29">Sketch</tspan>
                </text>
                <text id="9:41-AM" fill="#FFFFFF" sketch:type="MSTextLayer" font-family="Helvetica Neue" font-size="24" font-weight="420" sketch:alignment="middle" letter-spacing="1.19999981">
                    <tspan x="270.440001" y="29">9:41 AM</tspan>
                </text>
            </g>
            <text id="First-Floor" sketch:type="MSTextLayer" font-family="Open Sans" font-size="36" font-weight="bold" fill="#333333">
                <tspan x="325" y="177">First Floor</tspan>
            </text>
            <text id="Second-Floor" sketch:type="MSTextLayer" font-family="Open Sans" font-size="36" font-weight="bold" fill="#333333">
                <tspan x="325" y="577">Second Floor</tspan>
            </text>
            <rect id="Rectangle-10" fill="#EEEEEE" sketch:type="MSShapeGroup" x="315" y="203" width="640" height="80"></rect>
            <g id="Home" sketch:type="MSLayerGroup" transform="translate(343.000000, 218.000000)" stroke="#777777" stroke-width="2">
                <path d="M38,14 L48,24 L44,24 L44,46 L4,46 L4,24 L4,24 L0,24 L22.5882915,1.41170852 C23.3703945,0.629605517 24.6320434,0.632043433 25.4117085,1.41170852 L30,6 L30,4.99961498 C30,3.88743329 30.8945804,3 31.9981014,3 L36.0018986,3 C37.1132936,3 38,3.8992496 38,5.0085302 L38,14 L38,14 Z M20.999615,30 C19.8952581,30 19,30.8945138 19,31.9940603 L19,46 L29,46 L29,31.9940603 C29,30.8927712 28.1125667,30 27.000385,30 L20.999615,30 Z" id="Rectangle-72" sketch:type="MSShapeGroup"></path>
                <circle id="Oval-35" sketch:type="MSShapeGroup" cx="24" cy="19" r="5"></circle>
            </g>
            <rect id="Rectangle-11" fill="#F8F8F8" sketch:type="MSShapeGroup" x="315" y="283" width="640" height="80"></rect>
            <g id="Shop" sketch:type="MSLayerGroup" transform="translate(344.000000, 297.000000)" stroke="#777777" stroke-width="2">
                <path d="M10,45.125 L4,45.125 L4,15.125 L44,15.125 L44,45.125 L22,45.125 L22,47 L10,47 L10,45.125 Z M2,13 L2,47 L46,47 L46,13 L2,13 Z M2,13 L2,15.125 L46,15.125 L46,13 L2,13 Z" id="Rectangle-182" fill="#777777" sketch:type="MSShapeGroup"></path>
                <path d="M9.99406028,23 C8.8927712,23 8,23.8970262 8,25.0049466 L8,47 L24,47 L24,25.0049466 C24,23.8976452 23.1054862,23 22.0059397,23 L9.99406028,23 Z M12.0085302,25 C10.8992496,25 10,25.8896739 10,26.991155 L10,47 L22,47 L22,26.991155 C22,25.8914705 21.0980496,25 19.9914698,25 L12.0085302,25 Z" id="Rectangle-185" fill="#777777" sketch:type="MSShapeGroup"></path>
                <path d="M7.89865304,8.89865304 C7.49085273,10.6750694 5.90015343,12 4,12 C1.790861,12 0,10.209139 0,8 C0,6.09984657 1.32493061,4.50914727 3.10134696,4.10134696 L3,4 L7,0 L41,0 L45,4 L44.898653,4.10134696 C46.6750694,4.50914727 48,6.09984657 48,8 C48,10.209139 46.209139,12 44,12 C42.0998466,12 40.5091473,10.6750694 40.101347,8.89865304 L40,9 L39.8739825,9 C39.4299397,10.7252272 37.8638394,12 36,12 C34.1361606,12 32.5700603,10.7252272 32.1260175,9 L31.8739825,9 C31.4299397,10.7252272 29.8638394,12 28,12 C26.1361606,12 24.5700603,10.7252272 24.1260175,9 L23.8739825,9 C23.4299397,10.7252272 21.8638394,12 20,12 C18.1361606,12 16.5700603,10.7252272 16.1260175,9 L15.8739825,9 C15.4299397,10.7252272 13.8638394,12 12,12 C10.1361606,12 8.57006028,10.7252272 8.12601749,9 L8,9 L7.89865304,8.89865304 Z" id="Oval-36" fill="#777777" sketch:type="MSShapeGroup"></path>
                <rect id="Rectangle-188" sketch:type="MSShapeGroup" x="28" y="19" width="12" height="10" rx="2"></rect>
            </g>
            <rect id="Rectangle-13" fill="#EEEEEE" sketch:type="MSShapeGroup" x="315" y="362" width="640" height="80"></rect>
            <rect id="Rectangle-12" fill="#F8F8F8" sketch:type="MSShapeGroup" x="315" y="442" width="640" height="80"></rect>
            <rect id="Rectangle-17" fill="#EEEEEE" sketch:type="MSShapeGroup" x="320" y="607" width="640" height="80"></rect>
            <rect id="Rectangle-14" fill="#F8F8F8" sketch:type="MSShapeGroup" x="320" y="687" width="640" height="80"></rect>
            <rect id="Rectangle-15" fill="#EEEEEE" sketch:type="MSShapeGroup" x="320" y="766" width="640" height="80"></rect>
            <rect id="Rectangle-16" fill="#F8F8F8" sketch:type="MSShapeGroup" x="320" y="846" width="640" height="80"></rect>
            <g id="Home-2" sketch:type="MSLayerGroup" transform="translate(343.000000, 375.000000)" stroke="#777777" stroke-width="2">
                <path d="M38,14 L48,24 L44,24 L44,46 L4,46 L4,24 L4,24 L0,24 L22.5882915,1.41170852 C23.3703945,0.629605517 24.6320434,0.632043433 25.4117085,1.41170852 L30,6 L30,4.99961498 C30,3.88743329 30.8945804,3 31.9981014,3 L36.0018986,3 C37.1132936,3 38,3.8992496 38,5.0085302 L38,14 L38,14 Z M20.999615,30 C19.8952581,30 19,30.8945138 19,31.9940603 L19,46 L29,46 L29,31.9940603 C29,30.8927712 28.1125667,30 27.000385,30 L20.999615,30 Z" id="Rectangle-72" sketch:type="MSShapeGroup"></path>
                <circle id="Oval-35" sketch:type="MSShapeGroup" cx="24" cy="19" r="5"></circle>
            </g>
            <g id="Home-3" sketch:type="MSLayerGroup" transform="translate(343.000000, 458.000000)" stroke="#777777" stroke-width="2">
                <path d="M38,14 L48,24 L44,24 L44,46 L4,46 L4,24 L4,24 L0,24 L22.5882915,1.41170852 C23.3703945,0.629605517 24.6320434,0.632043433 25.4117085,1.41170852 L30,6 L30,4.99961498 C30,3.88743329 30.8945804,3 31.9981014,3 L36.0018986,3 C37.1132936,3 38,3.8992496 38,5.0085302 L38,14 L38,14 Z M20.999615,30 C19.8952581,30 19,30.8945138 19,31.9940603 L19,46 L29,46 L29,31.9940603 C29,30.8927712 28.1125667,30 27.000385,30 L20.999615,30 Z" id="Rectangle-72" sketch:type="MSShapeGroup"></path>
                <circle id="Oval-35" sketch:type="MSShapeGroup" cx="24" cy="19" r="5"></circle>
            </g>
            <rect id="Rectangle-19" fill="#EEEEEE" sketch:type="MSShapeGroup" x="320" y="926" width="640" height="80"></rect>
            <path d="M18.5,71 L73.5,71" id="Line" stroke="#FFFFFF" stroke-width="4" stroke-linecap="square" sketch:type="MSShapeGroup"></path>
            <path d="M18.5,96 L60.5,96" id="Line-4" stroke="#FFFFFF" stroke-width="4" stroke-linecap="square" sketch:type="MSShapeGroup"></path>
            <path d="M18.5,84 L49.5,84" id="Line-3" stroke="#FFFFFF" stroke-width="4" stroke-linecap="square" sketch:type="MSShapeGroup"></path>
            <path d="M18.5,108 L68.5,108" id="Line-2" stroke="#FFFFFF" stroke-width="4" stroke-linecap="square" sketch:type="MSShapeGroup"></path>
            <text id="Room-1001" sketch:type="MSTextLayer" font-family="Open Sans" font-size="24" font-weight="normal" fill="#777777">
                <tspan x="426" y="253">Room 1001</tspan>
            </text>
            <text id="Room-1003" sketch:type="MSTextLayer" font-family="Open Sans" font-size="24" font-weight="normal" fill="#777777">
                <tspan x="426" y="329">Room 1003</tspan>
            </text>
            <text id="Room-1005" sketch:type="MSTextLayer" font-family="Open Sans" font-size="24" font-weight="normal" fill="#777777">
                <tspan x="426" y="409">Room 1005</tspan>
            </text>
            <text id="Room-1006" sketch:type="MSTextLayer" font-family="Open Sans" font-size="24" font-weight="normal" fill="#777777">
                <tspan x="427" y="492">Room 1006</tspan>
            </text>
            <g id="Home-6" sketch:type="MSLayerGroup" transform="translate(343.000000, 620.000000)" stroke="#777777" stroke-width="2">
                <path d="M38,14 L48,24 L44,24 L44,46 L4,46 L4,24 L4,24 L0,24 L22.5882915,1.41170852 C23.3703945,0.629605517 24.6320434,0.632043433 25.4117085,1.41170852 L30,6 L30,4.99961498 C30,3.88743329 30.8945804,3 31.9981014,3 L36.0018986,3 C37.1132936,3 38,3.8992496 38,5.0085302 L38,14 L38,14 Z M20.999615,30 C19.8952581,30 19,30.8945138 19,31.9940603 L19,46 L29,46 L29,31.9940603 C29,30.8927712 28.1125667,30 27.000385,30 L20.999615,30 Z" id="Rectangle-72" sketch:type="MSShapeGroup"></path>
                <circle id="Oval-35" sketch:type="MSShapeGroup" cx="24" cy="19" r="5"></circle>
            </g>
            <g id="Shop-2" sketch:type="MSLayerGroup" transform="translate(349.000000, 702.000000)" stroke="#777777" stroke-width="2">
                <path d="M10,45.125 L4,45.125 L4,15.125 L44,15.125 L44,45.125 L22,45.125 L22,47 L10,47 L10,45.125 Z M2,13 L2,47 L46,47 L46,13 L2,13 Z M2,13 L2,15.125 L46,15.125 L46,13 L2,13 Z" id="Rectangle-182" fill="#777777" sketch:type="MSShapeGroup"></path>
                <path d="M9.99406028,23 C8.8927712,23 8,23.8970262 8,25.0049466 L8,47 L24,47 L24,25.0049466 C24,23.8976452 23.1054862,23 22.0059397,23 L9.99406028,23 Z M12.0085302,25 C10.8992496,25 10,25.8896739 10,26.991155 L10,47 L22,47 L22,26.991155 C22,25.8914705 21.0980496,25 19.9914698,25 L12.0085302,25 Z" id="Rectangle-185" fill="#777777" sketch:type="MSShapeGroup"></path>
                <path d="M7.89865304,8.89865304 C7.49085273,10.6750694 5.90015343,12 4,12 C1.790861,12 0,10.209139 0,8 C0,6.09984657 1.32493061,4.50914727 3.10134696,4.10134696 L3,4 L7,0 L41,0 L45,4 L44.898653,4.10134696 C46.6750694,4.50914727 48,6.09984657 48,8 C48,10.209139 46.209139,12 44,12 C42.0998466,12 40.5091473,10.6750694 40.101347,8.89865304 L40,9 L39.8739825,9 C39.4299397,10.7252272 37.8638394,12 36,12 C34.1361606,12 32.5700603,10.7252272 32.1260175,9 L31.8739825,9 C31.4299397,10.7252272 29.8638394,12 28,12 C26.1361606,12 24.5700603,10.7252272 24.1260175,9 L23.8739825,9 C23.4299397,10.7252272 21.8638394,12 20,12 C18.1361606,12 16.5700603,10.7252272 16.1260175,9 L15.8739825,9 C15.4299397,10.7252272 13.8638394,12 12,12 C10.1361606,12 8.57006028,10.7252272 8.12601749,9 L8,9 L7.89865304,8.89865304 Z" id="Oval-36" fill="#777777" sketch:type="MSShapeGroup"></path>
                <rect id="Rectangle-188" sketch:type="MSShapeGroup" x="28" y="19" width="12" height="10" rx="2"></rect>
            </g>
            <g id="Home-4" sketch:type="MSLayerGroup" transform="translate(348.000000, 780.000000)" stroke="#777777" stroke-width="2">
                <path d="M38,14 L48,24 L44,24 L44,46 L4,46 L4,24 L4,24 L0,24 L22.5882915,1.41170852 C23.3703945,0.629605517 24.6320434,0.632043433 25.4117085,1.41170852 L30,6 L30,4.99961498 C30,3.88743329 30.8945804,3 31.9981014,3 L36.0018986,3 C37.1132936,3 38,3.8992496 38,5.0085302 L38,14 L38,14 Z M20.999615,30 C19.8952581,30 19,30.8945138 19,31.9940603 L19,46 L29,46 L29,31.9940603 C29,30.8927712 28.1125667,30 27.000385,30 L20.999615,30 Z" id="Rectangle-72" sketch:type="MSShapeGroup"></path>
                <circle id="Oval-35" sketch:type="MSShapeGroup" cx="24" cy="19" r="5"></circle>
            </g>
            <g id="Home-5" sketch:type="MSLayerGroup" transform="translate(348.000000, 863.000000)" stroke="#777777" stroke-width="2">
                <path d="M38,14 L48,24 L44,24 L44,46 L4,46 L4,24 L4,24 L0,24 L22.5882915,1.41170852 C23.3703945,0.629605517 24.6320434,0.632043433 25.4117085,1.41170852 L30,6 L30,4.99961498 C30,3.88743329 30.8945804,3 31.9981014,3 L36.0018986,3 C37.1132936,3 38,3.8992496 38,5.0085302 L38,14 L38,14 Z M20.999615,30 C19.8952581,30 19,30.8945138 19,31.9940603 L19,46 L29,46 L29,31.9940603 C29,30.8927712 28.1125667,30 27.000385,30 L20.999615,30 Z" id="Rectangle-72" sketch:type="MSShapeGroup"></path>
                <circle id="Oval-35" sketch:type="MSShapeGroup" cx="24" cy="19" r="5"></circle>
            </g>
            <text id="Room-2002" sketch:type="MSTextLayer" font-family="Open Sans" font-size="24" font-weight="normal" fill="#777777">
                <tspan x="426" y="655">Room 2002</tspan>
            </text>
            <text id="Room-2004" sketch:type="MSTextLayer" font-family="Open Sans" font-size="24" font-weight="normal" fill="#777777">
                <tspan x="431" y="734">Room 2004</tspan>
            </text>
            <g id="Shop-3" sketch:type="MSLayerGroup" transform="translate(349.000000, 941.000000)" stroke="#777777" stroke-width="2">
                <path d="M10,45.125 L4,45.125 L4,15.125 L44,15.125 L44,45.125 L22,45.125 L22,47 L10,47 L10,45.125 Z M2,13 L2,47 L46,47 L46,13 L2,13 Z M2,13 L2,15.125 L46,15.125 L46,13 L2,13 Z" id="Rectangle-182" fill="#777777" sketch:type="MSShapeGroup"></path>
                <path d="M9.99406028,23 C8.8927712,23 8,23.8970262 8,25.0049466 L8,47 L24,47 L24,25.0049466 C24,23.8976452 23.1054862,23 22.0059397,23 L9.99406028,23 Z M12.0085302,25 C10.8992496,25 10,25.8896739 10,26.991155 L10,47 L22,47 L22,26.991155 C22,25.8914705 21.0980496,25 19.9914698,25 L12.0085302,25 Z" id="Rectangle-185" fill="#777777" sketch:type="MSShapeGroup"></path>
                <path d="M7.89865304,8.89865304 C7.49085273,10.6750694 5.90015343,12 4,12 C1.790861,12 0,10.209139 0,8 C0,6.09984657 1.32493061,4.50914727 3.10134696,4.10134696 L3,4 L7,0 L41,0 L45,4 L44.898653,4.10134696 C46.6750694,4.50914727 48,6.09984657 48,8 C48,10.209139 46.209139,12 44,12 C42.0998466,12 40.5091473,10.6750694 40.101347,8.89865304 L40,9 L39.8739825,9 C39.4299397,10.7252272 37.8638394,12 36,12 C34.1361606,12 32.5700603,10.7252272 32.1260175,9 L31.8739825,9 C31.4299397,10.7252272 29.8638394,12 28,12 C26.1361606,12 24.5700603,10.7252272 24.1260175,9 L23.8739825,9 C23.4299397,10.7252272 21.8638394,12 20,12 C18.1361606,12 16.5700603,10.7252272 16.1260175,9 L15.8739825,9 C15.4299397,10.7252272 13.8638394,12 12,12 C10.1361606,12 8.57006028,10.7252272 8.12601749,9 L8,9 L7.89865304,8.89865304 Z" id="Oval-36" fill="#777777" sketch:type="MSShapeGroup"></path>
                <rect id="Rectangle-188" sketch:type="MSShapeGroup" x="28" y="19" width="12" height="10" rx="2"></rect>
            </g>
            <text id="Room-2014" sketch:type="MSTextLayer" font-family="Open Sans" font-size="24" font-weight="normal" fill="#777777">
                <tspan x="431" y="973">Room 2014</tspan>
            </text>
            <text id="Room-2007" sketch:type="MSTextLayer" font-family="Open Sans" font-size="24" font-weight="normal" fill="#777777">
                <tspan x="431" y="814">Room 2007</tspan>
            </text>
            <text id="Room-2010" sketch:type="MSTextLayer" font-family="Open Sans" font-size="24" font-weight="normal" fill="#777777">
                <tspan x="432" y="897">Room 2010</tspan>
            </text>
            <rect id="Rectangle-133" fill="#555555" sketch:type="MSShapeGroup" x="0" y="129" width="320" height="1007"></rect>
            <path d="M48.354,310.364 C50.298,308.348 51.939,305.276 53.109,301.508 C55.304,302.174 57.405,303.047 59.395,304.11 C56.421,307.137 52.616,309.344 48.354,310.364 C48.354,310.364 52.616,309.344 48.354,310.364 L48.354,310.364 L48.354,310.364 Z M26.603,304.108 C28.577,303.055 30.66,302.188 32.834,301.526 C33.999,305.272 35.633,308.332 37.565,310.346 C33.336,309.317 29.56,307.118 26.603,304.108 C26.603,304.108 29.56,307.118 26.603,304.108 L26.603,304.108 L26.603,304.108 Z M37.565,265.655 C35.635,267.666 34.001,270.723 32.836,274.465 C30.664,273.803 28.582,272.936 26.61,271.885 C29.565,268.879 33.339,266.682 37.565,265.655 C37.565,265.655 33.339,266.682 37.565,265.655 L37.565,265.655 L37.565,265.655 Z M59.39,271.885 C57.4,272.944 55.3,273.819 53.106,274.483 C51.937,270.721 50.296,267.651 48.355,265.635 C52.613,266.657 56.415,268.86 59.39,271.885 C59.39,271.885 56.415,268.86 59.39,271.885 L59.39,271.885 L59.39,271.885 Z M55.012,287 C54.938,283.188 54.455,279.598 53.648,276.411 C56.142,275.657 58.524,274.647 60.767,273.412 C63.837,277.143 65.753,281.856 65.975,287 L55.012,287 L55.012,287 L55.012,287 L55.012,287 Z M55.012,289 L65.975,289 C65.754,294.141 63.84,298.85 60.773,302.58 C58.528,301.346 56.146,300.334 53.65,299.58 C54.456,296.395 54.938,292.807 55.012,289 C55.012,289 54.938,292.807 55.012,289 L55.012,289 L55.012,289 Z M44,298.03 L44,289 L52.999,289 C52.926,292.719 52.462,296.112 51.716,299.057 C49.23,298.452 46.651,298.1 44,298.03 C44,298.03 46.651,298.1 44,298.03 L44,298.03 L44,298.03 Z M44,310.842 L44,300.028 C46.463,300.098 48.859,300.424 51.17,300.981 C49.43,306.496 46.697,310.096 44,310.842 C44,310.842 46.697,310.096 44,310.842 L44,310.842 L44,310.842 Z M42,300.028 L42,310.866 C39.284,310.157 36.525,306.545 34.771,300.994 C37.1,300.428 39.517,300.098 42,300.028 C42,300.028 39.517,300.098 42,300.028 L42,300.028 L42,300.028 Z M32.938,289 L42,289 L42,298.03 C39.328,298.1 36.728,298.457 34.225,299.071 C33.476,296.123 33.012,292.725 32.938,289 C32.938,289 33.012,292.725 32.938,289 L32.938,289 L32.938,289 Z M30.926,289 C30.999,292.815 31.483,296.411 32.291,299.6 C29.817,300.352 27.454,301.356 25.227,302.582 C22.161,298.852 20.246,294.141 20.025,289 L30.926,289 L30.926,289 L30.926,289 L30.926,289 Z M30.926,287 L20.025,287 C20.246,281.86 22.161,277.149 25.227,273.418 C27.454,274.645 29.816,275.649 32.291,276.399 C31.483,279.588 30.999,283.184 30.926,287 C30.926,287 30.999,283.184 30.926,287 L30.926,287 L30.926,287 Z M42,277.959 L42,287 L32.938,287 C33.012,283.272 33.477,279.871 34.226,276.922 C36.729,277.534 39.328,277.889 42,277.959 C42,277.959 39.328,277.889 42,277.959 L42,277.959 L42,277.959 Z M42,265.135 L42,275.961 C39.517,275.891 37.101,275.561 34.774,274.994 C36.529,269.45 39.286,265.842 42,265.135 C42,265.135 39.286,265.842 42,265.135 L42,265.135 L42,265.135 Z M44,275.961 L44,265.159 C46.696,265.905 49.427,269.498 51.168,275.01 C48.858,275.567 46.462,275.891 44,275.961 C44,275.961 46.462,275.891 44,275.961 L44,275.961 L44,275.961 Z M44,277.961 C46.65,277.889 49.229,277.539 51.713,276.934 C52.462,279.881 52.926,283.278 52.999,287 L44,287 L44,277.961 L44,277.961 L44,277.961 L44,277.961 Z M43,263 L42.978,263 L42.969,263 C42.959,263 42.949,263.002 42.939,263.002 C29.159,263.034 18,274.213 18,288 C18,301.784 29.159,312.965 42.939,312.998 C42.949,312.998 42.959,313 42.969,313 L42.978,313 L43,313 C56.805,313 68,301.805 68,288 C68,274.194 56.805,263 43,263 L43,263 Z" id="global-L" fill="#FFFFFF" sketch:type="MSShapeGroup"></path>
            <path d="M26.641,198.731 C28.893,197.811 33.383,196.21 36.332,195.339 C38.047,194.798 38.047,193.353 38.047,192.193 C38.047,191.231 37.981,189.813 37.418,188.614 C37.032,187.793 36.59,186.385 36.493,185.282 C36.471,185.024 36.35,184.786 36.155,184.616 C35.871,184.368 35.295,183.46 34.928,181.628 C34.637,180.178 34.76,179.86 34.879,179.554 C34.93,179.423 34.979,179.294 35.018,179.148 C35.258,178.27 34.991,175.387 34.7,173.787 C34.573,173.092 34.733,171.116 36.034,169.452 C37.2,167.961 38.965,167.13 41.217,166.986 L43.114,166.984 C45.426,167.13 47.192,167.961 48.36,169.452 C49.661,171.116 49.819,173.092 49.692,173.788 C49.403,175.387 49.133,178.27 49.373,179.147 C49.414,179.294 49.461,179.423 49.512,179.554 C49.631,179.86 49.754,180.178 49.465,181.628 C49.098,183.46 48.52,184.368 48.237,184.616 C48.043,184.786 47.922,185.024 47.899,185.282 C47.803,186.385 47.362,187.793 46.975,188.614 C46.532,189.556 46.022,190.811 46.022,192.152 C46.022,193.312 46.022,194.757 47.754,195.303 C50.577,196.137 55.088,197.686 57.471,198.623 C53.493,202.563 48.026,205 42,205 C36.03,205 30.61,202.606 26.641,198.731 C26.641,198.731 30.61,202.606 26.641,198.731 L26.641,198.731 L26.641,198.731 Z M42,161 C54.131,161 64,170.869 64,183 C64,188.337 62.088,193.235 58.914,197.049 C56.721,196.133 51.543,194.336 48.338,193.39 C48.065,193.304 48.022,193.29 48.022,192.152 C48.022,191.213 48.409,190.266 48.786,189.466 C49.194,188.596 49.678,187.133 49.852,185.82 C50.338,185.256 51,184.142 51.426,182.02 C51.799,180.15 51.625,179.47 51.377,178.831 C51.352,178.764 51.325,178.697 51.305,178.631 C51.211,178.192 51.34,175.914 51.661,174.146 C51.881,172.933 51.604,170.354 49.934,168.221 C48.879,166.872 46.862,165.217 43.176,164.986 L41.155,164.988 C37.532,165.217 35.512,166.872 34.457,168.221 C32.788,170.354 32.51,172.933 32.731,174.145 C33.053,175.914 33.18,178.192 33.088,178.622 C33.069,178.697 33.041,178.764 33.014,178.831 C32.768,179.47 32.592,180.15 32.967,182.02 C33.391,184.142 34.053,185.256 34.541,185.82 C34.713,187.133 35.198,188.596 35.608,189.466 C35.907,190.102 36.047,190.969 36.047,192.193 C36.047,193.331 36.004,193.345 35.748,193.426 C32.434,194.404 27.159,196.31 25.192,197.172 C21.955,193.341 20,188.395 20,183 C20,170.869 29.87,161 42,161 C42,161 29.87,161 42,161 L42,161 L42,161 Z M42,159 C28.745,159 18,169.744 18,183 C18,196.256 28.745,207 42,207 C55.256,207 66,196.256 66,183 C66,169.744 55.256,159 42,159 L42,159 Z" id="user-L" fill="#FFFFFF" sketch:type="MSShapeGroup"></path>
            <text id="Sign-In" sketch:type="MSTextLayer" font-family="Open Sans" font-size="28" font-weight="normal" fill="#DDDDDD">
                <tspan x="94" y="194">Sign In</tspan>
            </text>
            <text id="Search" sketch:type="MSTextLayer" font-family="Open Sans" font-size="28" font-weight="normal" fill="#DDDDDD">
                <tspan x="95" y="300">Search</tspan>
            </text>
            <text id="Browse" sketch:type="MSTextLayer" font-family="Open Sans" font-size="28" font-weight="normal" fill="#DDDDDD">
                <tspan x="93" y="400">Browse</tspan>
            </text>
            <path d="M23,386 C23,376.626 30.625,369 40,369 C49.373,369 57,376.626 57,386 C57,395.374 49.373,403 40,403 C30.625,403 23,395.374 23,386 C23,386 23,395.374 23,386 L23,386 L23,386 Z M68.237,411.764 L54.614,398.139 C57.352,394.846 59,390.617 59,386 C59,375.506 50.494,367 40,367 C29.508,367 21,375.506 21,386 C21,396.493 29.508,405 40,405 C44.617,405 48.846,403.352 52.139,400.614 L65.762,414.238 L68.237,411.764 L68.237,411.764 Z" id="search-L" fill="#FFFFFF" sketch:type="MSShapeGroup"></path>
            <path d="M0.5,131.5 L317.496904,131.5" id="Line" stroke="#B8E986" stroke-width="5" stroke-linecap="square" sketch:type="MSShapeGroup"></path>
            <path d="M0.5,235.5 L317.496904,235.5" id="Line-5" stroke="#999999" stroke-width="3" stroke-linecap="square" sketch:type="MSShapeGroup"></path>
            <path d="M0.5,340.5 L317.496904,340.5" id="Line-6" stroke="#999999" stroke-width="3" stroke-linecap="square" sketch:type="MSShapeGroup"></path>
            <path d="M2.5,437.5 L319.496904,437.5" id="Line-7" stroke="#999999" stroke-width="3" stroke-linecap="square" sketch:type="MSShapeGroup"></path>
        </g>
    </g>
</svg>